<svg width="48" height="48" viewBox="0 0 48 48" fill="none" xmlns="http://www.w3.org/2000/svg">
<path fill-rule="evenodd" clip-rule="evenodd" d="M10 4H16C19.3137 4 22 6.68629 22 10V16C22 19.3137 19.3137 22 16 22H10C6.68629 22 4 19.3137 4 16V10C4 6.68629 6.68629 4 10 4ZM16 18C17.1046 18 18 17.1046 18 16V10C18 8.89543 17.1046 8 16 8H10C8.89543 8 8 8.89543 8 10V16C8 17.1046 8.89543 18 10 18H16ZM16 26H10C6.68629 26 4 28.6863 4 32V38C4 41.3137 6.68629 44 10 44H16C19.3137 44 22 41.3137 22 38V32C22 28.6863 19.3137 26 16 26ZM16 40C17.1046 40 18 39.1046 18 38V32C18 30.8954 17.1046 30 16 30H10C8.89543 30 8 30.8954 8 32V38C8 39.1046 8.89543 40 10 40H16ZM38 26H32C28.6863 26 26 28.6863 26 32V38C26 41.3137 28.6863 44 32 44H38C41.3137 44 44 41.3137 44 38V32C44 28.6863 41.3137 26 38 26ZM38 40C39.1046 40 40 39.1046 40 38V32C40 30.8954 39.1046 30 38 30H32C30.8954 30 30 30.8954 30 32V38C30 39.1046 30.8954 40 32 40H38ZM38 4H32C28.6863 4 26 6.68629 26 10V16C26 19.3137 28.6863 22 32 22H38C41.3137 22 44 19.3137 44 16V10C44 6.68629 41.3137 4 38 4ZM38 18C39.1046 18 40 17.1046 40 16V10C40 8.89543 39.1046 8 38 8H32C30.8954 8 30 8.89543 30 10V16C30 17.1046 30.8954 18 32 18H38Z" fill="#231F20"/>
</svg>
