<svg width="48" height="48" viewBox="0 0 48 48" fill="none" xmlns="http://www.w3.org/2000/svg">
<path fill-rule="evenodd" clip-rule="evenodd" d="M4 6C4 4.89543 4.89543 4 6 4H30C31.1046 4 32 4.89543 32 6C32 7.10457 31.1046 8 30 8H6C4.89543 8 4 7.10457 4 6ZM26 16H6C4.89543 16 4 16.8954 4 18C4 19.1046 4.89543 20 6 20H26C27.1046 20 28 19.1046 28 18C28 16.8954 27.1046 16 26 16ZM6 28H22C23.1046 28 24 28.8954 24 30C24 31.1046 23.1046 32 22 32H6C4.89543 32 4 31.1046 4 30C4 28.8954 4.89543 28 6 28ZM18 40H6C4.89543 40 4 40.8954 4 42C4 43.1046 4.89543 44 6 44H18C19.1046 44 20 43.1046 20 42C20 40.8954 19.1046 40 18 40ZM42 33.9884C42.5333 33.9884 43.0445 34.2014 43.42 34.58C43.7986 34.9555 44.0116 35.4667 44.0116 36C44.0116 36.5333 43.7986 37.0445 43.42 37.42L37.42 43.42C37.0445 43.7986 36.5333 44.0116 36 44.0116C35.4667 44.0116 34.9555 43.7986 34.58 43.42L28.58 37.42C28.0727 36.9127 27.8746 36.1733 28.0602 35.4802C28.2459 34.7872 28.7872 34.2459 29.4802 34.0602C30.1733 33.8746 30.9127 34.0727 31.42 34.58L34 37.18V6C34 4.89543 34.8954 4 36 4C37.1046 4 38 4.89543 38 6V37.18L40.58 34.58C40.9555 34.2014 41.4667 33.9884 42 33.9884Z" fill="#231F20"/>
</svg>
